HIERARCHY
ROOT Hips
{
	OFFSET 0.00 0.00 0.00
	CHANNELS 6 Xposition Yposition Zposition Xrotation Yrotation Zrotation
	JOINT Spine
	{
		OFFSET 0.00000 7.50895 0.00000
		CHANNELS 3 Xrotation Yrotation Zrotation
		JOINT Head
		{
			OFFSET 0.00000 13.86115 0.00000
			CHANNELS 3 Xrotation Yrotation Zrotation
			End Site
			{
				OFFSET 0.00000 4.52755 0.00000
			}
		}
		JOINT LeftShoulder
		{
			OFFSET 0.00000 8.20478 0.00000
			CHANNELS 3 Xrotation Yrotation Zrotation
			JOINT LeftArm
			{
				OFFSET 6.63596 0.00000 0.00000
				CHANNELS 3 Xrotation Yrotation Zrotation
				JOINT LeftForeArm
				{
					OFFSET 10.27422 0.00000 0.00000
					CHANNELS 3 Yrotation Zrotation Xrotation
					JOINT LeftHand
					{
						OFFSET 8.52215 0.00000 0.00000
						CHANNELS 3 Xrotation Yrotation Zrotation
						JOINT LeftHandThumb1
						{
							OFFSET 0.00000 0.00000 0.00000
							CHANNELS 3 Xrotation Zrotation Yrotation
							End Site
							{
								OFFSET 0.00000 0.00000 3.93700
							}
						}
						End Site
						{
							OFFSET 3.93700 0.00000 0.00000
						}
					}
				}
			}
		}
		JOINT RightShoulder
		{
			OFFSET 0.00000 8.20478 0.00000
			CHANNELS 3 Xrotation Yrotation Zrotation
			JOINT RightArm
			{
				OFFSET -6.63596 0.00000 0.00000
				CHANNELS 3 Xrotation Yrotation Zrotation
				JOINT RightForeArm
				{
					OFFSET -10.27422 0.00000 0.00000
					CHANNELS 3 Yrotation Zrotation Xrotation
					JOINT RightHand
					{
						OFFSET -8.52215 0.00000 0.00000
						CHANNELS 3 Xrotation Yrotation Zrotation
						JOINT RightHandThumb1
						{
							OFFSET 0.00000 0.00000 0.00000
							CHANNELS 3 Xrotation Zrotation Yrotation
							End Site
							{
								OFFSET 0.00000 0.00000 3.93700
							}
						}
						End Site
						{
							OFFSET -3.93700 0.00000 0.00000
						}
					}
				}
			}
		}
	}
	JOINT LeftUpLeg
	{
		OFFSET 3.00056 0.00000 0.00000
		CHANNELS 3 Xrotation Yrotation Zrotation
		JOINT LeftLeg
		{
			OFFSET 0.00000 -16.49085 0.00000
			CHANNELS 3 Xrotation Yrotation Zrotation
			JOINT LeftFoot
			{
				OFFSET 0.00000 -14.55658 0.00000
				CHANNELS 3 Xrotation Yrotation Zrotation
				JOINT LeftToeBase
				{
					OFFSET 0.00000 -1.25038 4.66650
					CHANNELS 3 Xrotation Yrotation Zrotation
					End Site
					{
						OFFSET 0.00000 0.00000 2.95275
					}
				}
			}
		}
	}
	JOINT RightUpLeg
	{
		OFFSET -3.00056 0.00000 0.00000
		CHANNELS 3 Xrotation Yrotation Zrotation
		JOINT RightLeg
		{
			OFFSET 0.00000 -16.49085 0.00000
			CHANNELS 3 Xrotation Yrotation Zrotation
			JOINT RightFoot
			{
				OFFSET 0.00000 -14.55658 0.00000
				CHANNELS 3 Xrotation Yrotation Zrotation
				JOINT RightToeBase
				{
					OFFSET 0.00000 -1.25038 4.66650
					CHANNELS 3 Xrotation Yrotation Zrotation
					End Site
					{
						OFFSET 0.00000 0.00000 2.95275
					}
				}
			}
		}
	}
}
MOTION
Frames: 22
Frame Time: 0.008333
 3.3671 13.2477 -9.5275 15.6613 10.3692 -26.0471 2.2475 1.4029 -37.2737 -32.2466 -1.9134 -36.1318 7.4554 5.0673 19.1714 -16.5135 -2.8283 -57.2277 -15.6190 0.0000 38.7589 -29.9052 -11.0612 108.4477 33.1476 -0.0000 26.2537 -38.7458 18.1796 -50.7706 -74.5028 30.9038 47.7110 22.9221 -0.0000 -25.9988 0.1737 2.6875 -3.7003 32.8623 0.0000 -24.3270 -109.0531 -37.0617 35.9289 128.0990 -0.0000 -0.0000 -31.6874 -2.8802 -21.8250 2.6463 0.0000 0.0000 -17.5979 -15.1188 -42.2691 8.1776 0.0000 0.0000 7.0374 -18.6245 -5.2180 7.8099 -0.0000 0.0000
 3.3676 13.2428 -9.5366 15.6473 10.3651 -26.0374 2.3045 1.4040 -37.2561 -31.9252 -1.9046 -35.8913 7.4626 5.0571 19.1786 -16.5136 -2.9041 -57.2611 -15.6194 0.0000 38.5154 -29.7945 -11.0045 108.4373 33.1476 -0.0000 26.2537 -38.6269 18.0470 -50.7458 -74.6044 30.9707 47.6562 22.9080 -0.0000 -25.9614 0.1873 2.8264 -3.7925 32.8623 0.0000 -24.3270 -109.0823 -37.0501 35.9195 128.1019 -0.0000 0.0000 -31.6880 -2.8954 -21.7905 2.6491 0.0000 0.0000 -17.6081 -15.1026 -42.2849 8.1814 -0.0000 -0.0000 7.0240 -18.6136 -5.2425 7.7445 -0.0000 0.0000
 3.3672 13.2398 -9.5460 15.6386 10.3524 -26.0278 2.3658 1.4051 -37.2624 -31.6226 -1.8605 -35.5754 7.4558 5.0544 19.2152 -16.5408 -2.9239 -57.3035 -15.6378 0.0000 38.4800 -29.7543 -11.0111 108.4756 33.1476 -0.0000 26.2537 -38.5747 18.0551 -50.7202 -74.4968 30.9915 47.5091 22.9130 -0.0000 -26.0302 0.1959 2.8395 -3.9479 32.8623 0.0000 -24.3270 -109.0977 -37.0397 35.9265 128.1098 -0.0000 0.0000 -31.6831 -2.8916 -21.8774 2.6492 0.0000 0.0000 -17.6098 -15.0566 -42.2881 8.1958 -0.0000 -0.0000 6.9859 -18.5984 -5.3317 7.6585 -0.0000 0.0000
 3.3692 13.2361 -9.5591 15.6580 10.3757 -26.0049 2.4098 1.3406 -37.2654 -31.3106 -1.7646 -35.2997 7.4564 5.0595 19.2240 -16.5620 -2.9874 -57.3276 -15.6096 0.0000 38.4015 -29.7475 -11.0375 108.5211 33.1476 -0.0000 26.2537 -38.4984 18.0081 -50.7151 -74.5224 30.9744 47.4513 22.9430 -0.0000 -26.0455 0.1964 2.7526 -4.0818 32.8623 0.0000 -24.3270 -109.1931 -36.9749 35.8502 128.0940 0.0000 -0.0000 -31.6710 -2.8832 -21.7789 2.7366 -0.0000 -0.0000 -17.6441 -15.0628 -42.3328 8.2059 0.0000 -0.0000 6.9570 -18.5589 -5.3535 7.8649 0.0000 -0.0000
 3.3695 13.2333 -9.5710 15.6700 10.3934 -25.9952 2.4882 1.3385 -37.2626 -30.9660 -1.7219 -35.0612 7.4764 5.0070 19.2540 -16.5950 -3.0507 -57.3597 -15.5890 0.0000 38.3302 -29.7699 -11.0679 108.5522 33.1476 -0.0000 26.2537 -38.4232 17.9478 -50.7221 -74.4742 31.0225 47.3606 22.8985 -0.0000 -26.1265 0.1926 2.6906 -4.0957 32.8623 0.0000 -24.3270 -109.2723 -36.9253 35.7985 128.0839 -0.0000 0.0000 -31.6654 -2.8780 -21.7269 2.8081 0.0000 -0.0000 -17.6709 -15.0752 -42.3586 8.2000 -0.0000 0.0000 6.9503 -18.5343 -5.4001 7.7665 -0.0000 -0.0000
 3.3709 13.2305 -9.5837 15.6998 10.4067 -25.9795 2.5493 1.3349 -37.2713 -30.6372 -1.6698 -34.8046 7.4925 4.9658 19.2821 -16.6419 -3.1099 -57.3974 -15.5636 0.0000 38.2717 -29.7809 -11.1012 108.5960 33.1476 -0.0000 26.2537 -38.3848 17.9115 -50.7208 -74.4064 31.0186 47.3193 22.8891 -0.0000 -26.1336 0.1932 2.7258 -4.0554 32.8623 0.0000 -24.3270 -109.3689 -36.8690 35.7469 128.0742 -0.0000 -0.0000 -31.6312 -2.8877 -21.7105 2.7563 0.0000 0.0000 -17.7085 -15.0730 -42.3939 8.2016 -0.0000 0.0000 6.9244 -18.5133 -5.4597 7.7223 -0.0000 -0.0000
 3.3705 13.2305 -9.5958 15.7325 10.4073 -25.9748 2.5737 1.3262 -37.2755 -30.2526 -1.5773 -34.5268 7.5410 4.9528 19.3002 -16.7130 -3.1611 -57.4203 -15.5325 0.0000 38.2089 -29.7883 -11.1044 108.5956 33.1476 -0.0000 26.2537 -38.2896 17.8602 -50.7465 -74.3823 30.9738 47.2838 22.8900 -0.0000 -26.1681 0.1951 2.7120 -4.1160 32.8623 0.0000 -24.3270 -109.4632 -36.8192 35.7129 128.0578 0.0000 0.0000 -31.6032 -2.9001 -21.6710 2.7947 -0.0000 -0.0000 -17.7682 -15.0826 -42.4151 8.2030 0.0000 -0.0000 6.9064 -18.4947 -5.4706 7.6804 0.0000 0.0000
 3.3708 13.2300 -9.6086 15.7640 10.4075 -25.9615 2.6224 1.3215 -37.2908 -29.8383 -1.4213 -34.1749 7.5307 4.9030 19.3301 -16.7225 -3.1790 -57.4469 -15.5439 0.0000 38.1598 -29.7807 -11.1148 108.6171 33.1476 -0.0000 26.2537 -38.2340 17.8293 -50.7323 -74.2629 31.0400 47.1894 22.8748 -0.0000 -26.2822 0.1944 2.6652 -4.1724 32.8623 0.0000 -24.3270 -109.5498 -36.7642 35.6791 128.0408 -0.0000 0.0000 -31.5868 -2.9081 -21.6181 2.7862 0.0000 -0.0000 -17.8203 -15.0767 -42.4443 8.2083 -0.0000 -0.0000 6.8885 -18.4753 -5.4992 7.6624 0.0000 0.0000
 3.3707 13.2316 -9.6213 15.8057 10.4062 -25.9639 2.6553 1.3367 -37.2951 -29.3625 -1.3064 -33.8647 7.5842 4.8574 19.3415 -16.7964 -3.2001 -57.4567 -15.5496 0.0000 38.1250 -29.7768 -11.1235 108.6331 33.1476 -0.0000 26.2537 -38.1389 17.8239 -50.7217 -74.1164 31.0534 47.0543 22.9301 -0.0000 -26.3143 0.1862 2.5260 -4.2169 32.8623 0.0000 -24.3270 -109.6460 -36.7200 35.6437 128.0164 0.0000 0.0000 -31.5594 -2.9233 -21.6089 2.7769 0.0000 0.0000 -17.8482 -15.0514 -42.4441 8.2202 0.0000 -0.0000 6.8713 -18.4624 -5.5004 7.6546 0.0000 0.0000
 3.3706 13.2325 -9.6341 15.8455 10.4113 -25.9331 2.6930 1.3074 -37.3613 -28.9575 -1.0978 -33.4217 7.5636 4.8306 19.4155 -16.8021 -3.1954 -57.5013 -15.5799 0.0000 38.1239 -29.7673 -11.1300 108.6499 33.1476 -0.0000 26.2537 -38.2571 18.0912 -50.7864 -73.6885 30.6899 47.0072 23.1079 -0.0000 -26.1628 0.1925 2.5584 -4.3032 32.8623 0.0000 -24.3270 -109.7263 -36.6418 35.6154 127.9929 -0.0000 0.0000 -31.5464 -2.9477 -21.5645 2.8190 0.0000 -0.0000 -17.9017 -15.0403 -42.4896 8.2261 -0.0000 -0.0000 6.8347 -18.4529 -5.5028 7.6161 -0.0000 -0.0000
 3.3701 13.2348 -9.6462 15.8783 10.4212 -25.9162 2.7397 1.2855 -37.4018 -28.5157 -0.8731 -33.0280 7.5565 4.7976 19.4512 -16.8227 -3.2144 -57.5113 -15.5964 0.0000 38.0654 -29.7319 -11.1402 108.6904 33.1476 -0.0000 26.2537 -38.1807 18.0879 -50.7640 -73.5569 30.6870 46.8982 23.1243 -0.0000 -26.1282 0.1895 2.5303 -4.2836 32.8623 0.0000 -24.3270 -109.8040 -36.5673 35.5834 127.9665 0.0000 -0.0000 -31.5494 -2.9478 -21.4940 2.9044 -0.0000 -0.0000 -17.9497 -15.0475 -42.5182 8.2198 0.0000 -0.0000 6.8130 -18.4382 -5.5310 7.5653 0.0000 0.0000
 3.3682 13.2390 -9.6588 15.9080 10.4246 -25.9160 2.7987 1.2635 -37.4184 -28.0945 -0.6892 -32.6616 7.5628 4.7751 19.4723 -16.8887 -3.2182 -57.5218 -15.6079 0.0000 38.0543 -29.7504 -11.1494 108.6916 33.1476 -0.0000 26.2537 -38.1136 18.0443 -50.7331 -73.4959 30.7338 46.8221 23.0822 -0.0000 -26.0736 0.1849 2.5276 -4.1847 32.8623 0.0000 -24.3270 -109.8786 -36.5075 35.5585 127.9277 -0.0000 -0.0000 -31.5196 -2.9636 -21.4854 2.8574 -0.0000 -0.0000 -17.9616 -15.0210 -42.5123 8.2135 0.0000 0.0000 6.8123 -18.4622 -5.5268 7.5357 -0.0000 -0.0000
 3.3692 13.2434 -9.6694 15.9349 10.4418 -25.8975 2.8338 1.2352 -37.4459 -27.5982 -0.5356 -32.3532 7.5857 4.7160 19.4685 -16.8914 -3.2211 -57.4901 -15.6265 0.0000 38.0069 -29.7703 -11.1574 108.6899 33.1476 -0.0000 26.2537 -38.2087 18.2391 -50.6777 -73.2102 30.7099 46.8158 22.9959 -0.0000 -26.0565 0.1946 2.6372 -4.2221 32.8623 0.0000 -24.3270 -109.9680 -36.4021 35.5452 127.9034 -0.0000 0.0000 -31.4878 -2.9850 -21.4412 2.8417 0.0000 -0.0000 -17.9736 -15.0257 -42.5340 8.1854 0.0000 0.0000 6.8245 -18.4576 -5.5305 7.4749 -0.0000 -0.0000
 3.3683 13.2478 -9.6808 15.9701 10.4449 -25.8920 2.8664 1.2281 -37.4735 -27.1467 -0.4217 -32.0092 7.6200 4.6634 19.4990 -16.9669 -3.1773 -57.5010 -15.6153 0.0000 38.0127 -29.7769 -11.1765 108.7146 33.1476 -0.0000 26.2537 -38.1106 18.2260 -50.6103 -73.1008 30.8136 46.6946 22.9470 -0.0000 -26.0277 0.1938 2.5990 -4.2664 32.8623 0.0000 -24.3270 -110.0525 -36.3389 35.5344 127.8713 -0.0000 0.0000 -31.4635 -3.0306 -21.3497 2.8451 0.0000 -0.0000 -18.0200 -15.0480 -42.5524 8.1588 -0.0000 -0.0000 6.8335 -18.4260 -5.4508 7.4586 -0.0000 -0.0000
 3.3652 13.2524 -9.6933 16.0167 10.4419 -25.8971 2.9088 1.2045 -37.5030 -26.7739 -0.3165 -31.6391 7.6469 4.6670 19.5505 -17.0559 -3.2173 -57.5346 -15.5999 0.0000 37.9723 -29.7614 -11.1799 108.7307 33.1476 -0.0000 26.2537 -37.7746 17.9819 -50.5647 -73.2151 31.0386 46.3996 22.8796 -0.0000 -26.1764 0.1895 2.5984 -4.1728 32.8623 0.0000 -24.3270 -110.1485 -36.2746 35.5167 127.8325 -0.0000 0.0000 -31.4499 -3.0305 -21.3143 2.9094 0.0000 0.0000 -18.0605 -15.0490 -42.5467 8.1389 0.0000 -0.0000 6.8332 -18.4335 -5.4882 7.3394 0.0000 0.0000
 3.3614 13.2576 -9.7037 16.0597 10.4381 -25.9225 2.9541 1.1961 -37.5002 -26.4546 -0.2317 -31.3246 7.6631 4.6501 19.5796 -17.1322 -3.2274 -57.5562 -15.6050 0.0000 37.9647 -29.7811 -11.1745 108.7086 33.1476 -0.0000 26.2537 -37.5900 17.8585 -50.5472 -73.2541 31.1091 46.2590 22.8480 -0.0000 -26.1915 0.1883 2.5402 -4.2414 32.8623 0.0000 -24.3270 -110.2615 -36.2248 35.4917 127.7790 0.0000 0.0000 -31.4388 -2.9806 -21.2933 3.0564 0.0000 -0.0000 -18.1170 -15.0910 -42.5236 8.1096 0.0000 -0.0000 6.8864 -18.3838 -5.6894 7.1126 -0.0000 -0.0000
 3.3586 13.2623 -9.7164 16.1046 10.4363 -25.9324 3.0292 1.2002 -37.5253 -26.1725 -0.1957 -30.9929 7.6128 4.5619 19.6553 -17.1095 -3.2218 -57.6009 -15.6389 0.0000 37.9176 -29.7764 -11.1706 108.7059 33.1476 -0.0000 26.2537 -37.5866 17.9136 -50.5502 -73.0268 31.0574 46.1365 22.8703 -0.0000 -26.2145 0.1807 2.4432 -4.2306 32.8623 0.0000 -24.3270 -110.3470 -36.1811 35.4793 127.7527 -0.0000 0.0000 -31.4070 -3.0796 -21.1874 2.9105 -0.0000 -0.0000 -18.1738 -15.1108 -42.5236 8.0917 -0.0000 -0.0000 6.7999 -18.4039 -5.5358 7.3992 0.0000 -0.0000
 3.3553 13.2681 -9.7279 16.1485 10.4425 -25.9479 3.0934 1.1791 -37.5351 -25.8833 -0.1401 -30.6788 7.6079 4.5341 19.6870 -17.1703 -3.2507 -57.6142 -15.6269 0.0000 37.8991 -29.7734 -11.1717 108.7097 33.1476 -0.0000 26.2537 -37.4760 17.8475 -50.5434 -72.9747 31.0701 46.0082 22.8631 -0.0000 -26.3087 0.1875 2.5437 -4.2172 32.8623 0.0000 -24.3270 -110.4387 -36.1324 35.4644 127.7078 -0.0000 -0.0000 -31.3766 -3.1266 -21.1874 2.9411 -0.0000 -0.0000 -18.2334 -15.1521 -42.5205 8.0686 -0.0000 0.0000 6.7889 -18.3835 -5.4578 7.4376 -0.0000 0.0000
 3.3535 13.2741 -9.7400 16.1825 10.4674 -25.9495 3.1545 1.1098 -37.5534 -25.5952 -0.0858 -30.4268 7.5981 4.5294 19.7033 -17.2362 -3.2710 -57.6148 -15.5941 0.0000 37.8992 -29.7851 -11.1821 108.7176 33.1476 -0.0000 26.2537 -37.5857 17.9682 -50.4849 -72.8272 30.9767 46.0696 22.8447 -0.0000 -26.2373 0.1956 2.6142 -4.2808 32.8623 0.0000 -24.3270 -110.5495 -36.0380 35.4174 127.6554 -0.0000 -0.0000 -31.3533 -3.0709 -21.1421 3.0476 0.0000 -0.0000 -18.2934 -15.2129 -42.5369 8.0469 0.0000 0.0000 6.7913 -18.3408 -5.4576 7.4465 -0.0000 0.0000
 3.3509 13.2785 -9.7532 16.2381 10.4795 -25.9637 3.2282 1.1081 -37.5703 -25.3143 -0.1593 -30.2206 7.6349 4.5123 19.7388 -17.3780 -3.3250 -57.6420 -15.5608 0.0000 37.8708 -29.7197 -11.1941 108.7821 33.1476 -0.0000 26.2537 -37.5030 17.9238 -50.4023 -72.7388 31.1026 45.9180 22.7833 -0.0000 -26.3347 0.1974 2.6223 -4.3072 32.8623 0.0000 -24.3270 -110.6673 -35.9713 35.3693 127.6167 0.0000 -0.0000 -31.3475 -3.0756 -21.0761 3.1030 -0.0000 0.0000 -18.3652 -15.2529 -42.5434 8.0367 0.0000 -0.0000 6.7922 -18.3207 -5.4309 7.3887 -0.0000 -0.0000
 3.3483 13.2816 -9.7686 16.3047 10.4954 -25.9450 3.2933 1.0560 -37.6406 -25.0912 -0.1615 -29.9106 7.6038 4.5315 19.8264 -17.4544 -3.4057 -57.7014 -15.5509 0.0000 37.8234 -29.7298 -11.2117 108.8021 33.1476 -0.0000 26.2537 -37.3790 17.9965 -50.4216 -72.5010 30.9416 45.6334 22.9614 -0.0000 -26.3294 0.1969 2.5545 -4.4099 32.8623 0.0000 -24.3270 -110.7614 -35.8976 35.3355 127.5803 -0.0000 -0.0000 -31.3296 -3.1922 -21.0183 3.0634 -0.0000 -0.0000 -18.4646 -15.2798 -42.5998 8.0419 -0.0000 -0.0000 6.7901 -18.3228 -5.4097 7.1720 -0.0000 -0.0000
 3.3456 13.2879 -9.7808 16.3515 10.5297 -25.9734 3.3731 1.0166 -37.6094 -24.7976 -0.1763 -29.7594 7.6386 4.4841 19.8029 -17.5328 -3.4465 -57.6700 -15.5389 0.0000 37.7551 -29.6758 -11.1949 108.8146 33.1476 -0.0000 26.2537 -37.3049 17.8449 -50.3342 -72.6586 31.1018 45.6711 22.8475 -0.0000 -26.3375 0.2076 2.6127 -4.5444 32.8623 0.0000 -24.3270 -110.9094 -35.8172 35.2486 127.5425 0.0000 -0.0000 -31.3012 -3.1161 -20.9485 3.2109 0.0000 -0.0000 -18.5127 -15.3363 -42.5888 8.0496 0.0000 0.0000 6.8083 -18.2914 -5.3879 7.3977 0.0000 0.0000
